HIERARCHY
ROOT Hips
{
	OFFSET 0.000000 0.000000 0.000000
	CHANNELS 6 Xposition Yposition Zposition Zrotation Yrotation Xrotation 
	JOINT LHipJoint
	{
		OFFSET 0.000000 0.000000 0.000000
		CHANNELS 3 Zrotation Yrotation Xrotation
		JOINT LeftUpLeg
		{
			OFFSET 1.363060 -1.794630 0.839290
			CHANNELS 3 Zrotation Yrotation Xrotation
			JOINT LeftLeg
			{
				OFFSET 2.448110 -6.726130 0.000000
				CHANNELS 3 Zrotation Yrotation Xrotation
				JOINT LeftFoot
				{
					OFFSET 2.562200 -7.039590 0.000000
					CHANNELS 3 Zrotation Yrotation Xrotation
					JOINT LeftToeBase
					{
						OFFSET 0.157640 -0.433110 2.322550
						CHANNELS 3 Zrotation Yrotation Xrotation
						End Site
						{
							OFFSET 0.000000 0.000000 0.000000
						}
					}
				}
			}
		}
	}
	JOINT RHipJoint
	{
		OFFSET 0.000000 0.000000 0.000000
		CHANNELS 3 Zrotation Yrotation Xrotation
		JOINT RightUpLeg
		{
			OFFSET -1.305520 -1.794630 0.839290
			CHANNELS 3 Zrotation Yrotation Xrotation
			JOINT RightLeg
			{
				OFFSET -2.542530 -6.985550 0.000000
				CHANNELS 3 Zrotation Yrotation Xrotation
				JOINT RightFoot
				{
					OFFSET -2.568260 -7.056230 0.000000
					CHANNELS 3 Zrotation Yrotation Xrotation
					JOINT RightToeBase
					{
						OFFSET -0.164730 -0.452590 2.363150
						CHANNELS 3 Zrotation Yrotation Xrotation
						End Site
						{
							OFFSET 0.000000 0.000000 0.000000
						}
					}
				}
			}
		}
	}
	JOINT LowerBack
	{
		OFFSET 0.000000 0.000000 0.000000
		CHANNELS 3 Zrotation Yrotation Xrotation
		JOINT Spine
		{
			OFFSET 0.028270 2.035590 -0.193380
			CHANNELS 3 Zrotation Yrotation Xrotation
			JOINT Spine1
			{
				OFFSET 0.056720 2.048850 -0.042750
				CHANNELS 3 Zrotation Yrotation Xrotation
				JOINT Neck
				{
					OFFSET 0.000000 0.000000 0.000000
					CHANNELS 3 Zrotation Yrotation Xrotation
					JOINT Neck1
					{
						OFFSET -0.054170 1.746240 0.172020
						CHANNELS 3 Zrotation Yrotation Xrotation
						JOINT Head
						{
							OFFSET 0.104070 1.761360 -0.123970
							CHANNELS 3 Zrotation Yrotation Xrotation
							End Site
							{
								OFFSET 0.000000 0.000000 0.000000
							}
						}
					}
				}
				JOINT LeftShoulder
				{
					OFFSET 0.000000 0.000000 0.000000
					CHANNELS 3 Zrotation Yrotation Xrotation
					JOINT LeftArm
					{
						OFFSET 3.362410 1.200890 -0.311210
						CHANNELS 3 Zrotation Yrotation Xrotation
						JOINT LeftForeArm
						{
							OFFSET 4.983000 -0.000000 -0.000000
							CHANNELS 3 Zrotation Yrotation Xrotation
							JOINT LeftHand
							{
								OFFSET 3.483560 -0.000000 -0.000000
								CHANNELS 3 Zrotation Yrotation Xrotation
								JOINT LeftFingerBase
								{
									OFFSET 0.000000 0.000000 0.000000
									CHANNELS 3 Zrotation Yrotation Xrotation
									JOINT LeftHandIndex1
									{
										OFFSET 0.715260 -0.000000 -0.000000
										CHANNELS 3 Zrotation Yrotation Xrotation
										End Site
										{
											OFFSET 0.000000 0.000000 0.000000
										}
									}
								}
								JOINT LThumb
								{
									OFFSET 0.000000 0.000000 0.000000
									CHANNELS 3 Zrotation Yrotation Xrotation
									End Site
									{
										OFFSET 0.000000 0.000000 0.000000
									}
								}
							}
						}
					}
				}
				JOINT RightShoulder
				{
					OFFSET 0.000000 0.000000 0.000000
					CHANNELS 3 Zrotation Yrotation Xrotation
					JOINT RightArm
					{
						OFFSET -3.136600 1.374050 -0.404650
						CHANNELS 3 Zrotation Yrotation Xrotation
						JOINT RightForeArm
						{
							OFFSET -5.241900 -0.000000 -0.000000
							CHANNELS 3 Zrotation Yrotation Xrotation
							JOINT RightHand
							{
								OFFSET -3.444170 -0.000000 -0.000000
								CHANNELS 3 Zrotation Yrotation Xrotation
								JOINT RightFingerBase
								{
									OFFSET 0.000000 0.000000 0.000000
									CHANNELS 3 Zrotation Yrotation Xrotation
									JOINT RightHandIndex1
									{
										OFFSET -0.622530 -0.000000 -0.000000
										CHANNELS 3 Zrotation Yrotation Xrotation
										End Site
										{
											OFFSET 0.000000 0.000000 0.000000
										}
									}
								}
								JOINT RThumb
								{
									OFFSET 0.000000 0.000000 0.000000
									CHANNELS 3 Zrotation Yrotation Xrotation
									End Site
									{
										OFFSET 0.000000 0.000000 0.000000
									}
								}
							}
						}
					}
				}
			}
		}
	}
}
MOTION
Frames: 6
Frame Time: 0.008333
0.239096 17.773909 -14.570262 -2.064460 -0.777604 9.273852 -1.280938 -0.626564 0.059092 -14.379285 1.553177 -22.116959 0.184492 7.918196 21.524858 -0.522074 4.256059 -0.466979 0.061000 1.593900 4.384700 -0.752228 0.227003 -0.440334 18.994654 3.949455 -20.794627 -0.958450 -8.793539 24.397257 0.041822 -2.073695 -4.556106 -0.226600 -3.064300 8.457900 1.191426 -0.180784 3.693179 1.442879 -0.048671 -0.767477 1.161133 -0.456797 9.010339 -2.957198 -0.935627 -8.848230 2.792202 -0.679970 36.000553 0.507400 0.280600 13.656500 9.326414 5.850246 0.656607 -94.605465 -1.243308 33.801014 12.181683 -24.962294 -2.994566 0.026526 -0.799084 -14.214804 26.534289 -4.558096 -1.849400 -7.125000 0.000000 0.000000 0.065200 25.862400 -0.030200 -8.351021 -4.737948 0.234391 92.801550 -2.300563 20.754403 -16.995719 31.883379 -5.633408 0.574573 1.051473 18.735460 -23.175734 -24.565080 10.663500 7.125000 0.000000 0.000000 7.178800 -57.617200 -2.225300
0.240338 17.772947 -14.569358 -2.062475 -0.776475 9.278287 -1.279574 -0.627660 0.057212 -14.386161 1.545025 -22.131590 0.189230 7.929525 21.556881 -0.523087 4.260180 -0.488256 0.060467 1.586608 4.364523 -0.754221 0.227806 -0.440974 18.988763 3.953551 -20.811440 -0.963833 -8.804685 24.429776 0.041223 -2.072653 -4.575288 -0.225418 -3.056345 8.435708 1.183342 -0.183194 3.710917 1.444716 -0.051230 -0.766079 1.172464 -0.459389 9.005337 -2.963107 -0.930651 -8.833936 2.795347 -0.673179 35.984249 0.509887 0.283298 13.644033 9.326705 5.849509 0.657458 -94.610189 -1.232116 33.783722 12.179758 -24.959451 -2.993204 0.025313 -0.799128 -14.234691 26.561117 -4.628700 -1.887072 -7.125000 0.000000 0.000000 0.084737 25.782510 -0.039473 -8.349947 -4.737797 0.234768 92.790102 -2.300390 20.745905 -16.991483 31.877696 -5.631217 0.575585 1.050742 18.746778 -23.195371 -24.530664 10.660695 7.125000 0.000000 0.000000 7.140972 -57.585847 -2.208063
0.241782 17.771848 -14.568454 -2.062268 -0.775799 9.281324 -1.277833 -0.628793 0.055101 -14.391605 1.535930 -22.146953 0.194620 7.942284 21.593129 -0.523785 4.262876 -0.510447 0.060116 1.582198 4.352261 -0.756271 0.228601 -0.441638 18.984469 3.955613 -20.829187 -0.969549 -8.816642 24.464665 0.039974 -2.068445 -4.595154 -0.223804 -3.045162 8.404412 1.178027 -0.183981 3.733135 1.446032 -0.051459 -0.764373 1.181231 -0.460377 8.999300 -2.970026 -0.925788 -8.819798 2.806954 -0.669946 35.959269 0.515569 0.285114 13.627540 9.326759 5.848615 0.658125 -94.605711 -1.213850 33.790688 12.181644 -24.962781 -2.993763 0.024270 -0.799190 -14.268490 26.579239 -4.698891 -1.923962 -7.125000 0.000000 0.000000 0.097756 25.703126 -0.045727 -8.349051 -4.738131 0.235231 92.780545 -2.309667 20.731030 -16.986513 31.871446 -5.628697 0.576699 1.049980 18.751260 -23.221197 -24.492089 10.659576 7.125000 0.000000 0.000000 7.094448 -57.551596 -2.187769
0.243378 17.770640 -14.567576 -2.063986 -0.779414 9.283604 -1.275691 -0.629950 0.052706 -14.395590 1.526095 -22.162275 0.200743 7.956764 21.634253 -0.524767 4.266575 -0.535643 0.060274 1.584190 4.357845 -0.758418 0.229465 -0.442494 18.981008 3.959660 -20.847689 -0.975534 -8.829369 24.501784 0.038402 -2.062117 -4.612918 -0.221757 -3.031448 8.366359 1.175874 -0.182663 3.756749 1.446767 -0.048976 -0.761630 1.187030 -0.459632 8.996424 -2.978332 -0.921861 -8.811568 2.824558 -0.670059 35.927544 0.523618 0.285700 13.609435 9.326273 5.847875 0.658787 -94.590957 -1.194874 33.826321 12.183571 -24.966817 -2.995263 0.024057 -0.799096 -14.311768 26.545331 -4.732144 -1.938143 -7.125000 0.000000 0.000000 0.071844 25.666744 -0.033618 -8.348119 -4.739054 0.235675 92.769399 -2.322101 20.713066 -16.977615 31.860988 -5.624142 0.577813 1.049241 18.752734 -23.247282 -24.449255 10.656804 7.125000 0.000000 0.000000 7.045997 -57.512934 -2.166139
0.245279 17.769248 -14.566613 -2.064149 -0.787783 9.284456 -1.273278 -0.631034 0.050224 -14.402096 1.515864 -22.175878 0.207690 7.972739 21.679920 -0.526459 4.273499 -0.566359 0.060333 1.585296 4.360855 -0.760570 0.230315 -0.443502 18.974532 3.963341 -20.866545 -0.982054 -8.843252 24.542058 0.036181 -2.052068 -4.628759 -0.219743 -3.017869 8.328425 1.174051 -0.180676 3.781309 1.446619 -0.045344 -0.757941 1.189626 -0.458021 8.997160 -2.985469 -0.919663 -8.811305 2.842287 -0.672734 35.895113 0.531295 0.285139 13.593330 9.325234 5.847703 0.659493 -94.571500 -1.172358 33.869664 12.184584 -24.970081 -2.997299 0.024590 -0.798882 -14.349137 26.463609 -4.725274 -1.928304 -7.125000 0.000000 0.000000 0.010189 25.676436 -0.004737 -8.347118 -4.740428 0.236042 92.756385 -2.334883 20.690247 -16.962406 31.843517 -5.616319 0.578517 1.049047 18.761459 -23.258192 -24.424758 10.653299 7.125000 0.000000 0.000000 7.022865 -57.490095 -2.155110
0.247205 17.767803 -14.565557 -2.064457 -0.799445 9.286774 -1.270500 -0.632427 0.047294 -14.409157 1.509066 -22.194238 0.215201 7.990218 21.729688 -0.528158 4.280566 -0.599042 0.060218 1.583703 4.356462 -0.763048 0.231428 -0.444810 18.968172 3.970214 -20.888980 -0.989318 -8.858720 24.586740 0.034220 -2.043328 -4.645543 -0.217166 -3.000214 8.279393 1.171253 -0.179215 3.803202 1.446532 -0.042673 -0.753150 1.193095 -0.457120 9.003614 -2.994716 -0.918846 -8.818704 2.859203 -0.676235 35.863407 0.539177 0.283783 13.579573 9.323591 5.848186 0.660244 -94.553636 -1.146181 33.906719 12.182709 -24.969501 -2.997765 0.024919 -0.798845 -14.372846 26.398318 -4.718407 -1.919638 -7.125000 0.000000 0.000000 -0.038992 25.685984 0.018284 -8.345714 -4.742272 0.236454 92.740410 -2.340200 20.661146 -16.937139 31.813964 -5.603059 0.578674 1.049524 18.779692 -23.247718 -24.419147 10.646023 7.125000 0.000000 0.000000 7.032352 -57.482647 -2.156733
